HIERARCHY
ROOT Hips
{
 OFFSET 0.000000 0.000000 0.000000
 CHANNELS 6 Xposition Yposition Zposition Yrotation Xrotation Zrotation
 JOINT Chest
 {
  OFFSET 0.000000 9.585900 0.002600
  CHANNELS 3 Yrotation Xrotation Zrotation
  JOINT Chest2
  {
   OFFSET 0.000000 9.601200 -0.005300
   CHANNELS 3 Yrotation Xrotation Zrotation
   JOINT Chest3
   {
    OFFSET 0.000000 9.561800 0.000000
    CHANNELS 3 Yrotation Xrotation Zrotation
    JOINT Chest4
    {
     OFFSET 0.000000 9.552100 0.000000
     CHANNELS 3 Yrotation Xrotation Zrotation
     JOINT Neck
     {
      OFFSET 0.000000 14.453000 0.000000
      CHANNELS 3 Yrotation Xrotation Zrotation
      JOINT Head
      {
       OFFSET 0.000000 8.936500 -0.011300
       CHANNELS 3 Yrotation Xrotation Zrotation
       End Site
       {
        OFFSET 0.000000 17.073600 -0.006000
       }
      }
     }
     JOINT RightCollar
     {
      OFFSET -2.921100 9.558500 0.000000
      CHANNELS 3 Yrotation Xrotation Zrotation
      JOINT RightShoulder
      {
       OFFSET -13.519700 0.000000 0.000000
       CHANNELS 3 Yrotation Xrotation Zrotation
       JOINT RightElbow
       {
        OFFSET 0.000000 -29.696600 0.000000
        CHANNELS 3 Yrotation Xrotation Zrotation
        JOINT RightWrist
        {
         OFFSET 0.000000 -24.004700 0.000000
         CHANNELS 3 Yrotation Xrotation Zrotation
         End Site
         {
          OFFSET 0.000000 -17.728500 0.000000
         }
        }
       }
      }
     }
     JOINT LeftCollar
     {
      OFFSET 2.921100 9.558500 0.000000
      CHANNELS 3 Yrotation Xrotation Zrotation
      JOINT LeftShoulder
      {
       OFFSET 13.519700 0.000000 0.000000
       CHANNELS 3 Yrotation Xrotation Zrotation
       JOINT LeftElbow
       {
        OFFSET 0.000000 -29.696600 0.000000
        CHANNELS 3 Yrotation Xrotation Zrotation
        JOINT LeftWrist
        {
         OFFSET 0.000000 -24.004700 0.000000
         CHANNELS 3 Yrotation Xrotation Zrotation
         End Site
         {
          OFFSET 0.000000 -17.728500 0.000000
         }
        }
       }
      }
     }
    }
   }
  }
 }
 JOINT RightHip
 {
  OFFSET -7.771700 -0.012900 -0.001300
  CHANNELS 3 Yrotation Xrotation Zrotation
  JOINT RightKnee
  {
   OFFSET 0.000000 -40.869800 0.001200
   CHANNELS 3 Yrotation Xrotation Zrotation
   JOINT RightAnkle
   {
    OFFSET 0.000000 -39.717900 0.002100
    CHANNELS 3 Yrotation Xrotation Zrotation
    JOINT RightToe
    {
     OFFSET 0.000000 -4.965400 11.033500
     CHANNELS 3 Yrotation Xrotation Zrotation
     End Site
     {
      OFFSET 0.000000 -1.423100 5.872300
     }
    }
   }
  }
 }
 JOINT LeftHip
 {
  OFFSET 7.771700 -0.012900 -0.001300
  CHANNELS 3 Yrotation Xrotation Zrotation
  JOINT LeftKnee
  {
   OFFSET 0.000000 -40.869800 0.001200
   CHANNELS 3 Yrotation Xrotation Zrotation
   JOINT LeftAnkle
   {
    OFFSET 0.000000 -39.717900 0.002100
    CHANNELS 3 Yrotation Xrotation Zrotation
    JOINT LeftToe
    {
     OFFSET 0.000000 -4.965400 11.033500
     CHANNELS 3 Yrotation Xrotation Zrotation
     End Site
     {
      OFFSET 0.000000 -1.423100 5.872300
     }
    }
   }
  }
 }
}
MOTION
Frames: 6
Frame Time: 0.008333
-26.328567 55.937008 34.206604 -166.146623 -30.379533 -10.962496 -4.483234 14.195502 7.166259 -2.702666 8.393279 2.259558 -3.327520 10.524740 2.760141 -2.690819 8.435981 2.242719 1.630483 22.432974 -2.526439 2.341487 -1.597509 -3.114397 3.621408 -0.395796 -2.965938 2.515310 -17.835312 0.484478 74.433500 -45.431838 -53.629091 14.200035 3.385254 -8.243119 -13.929299 1.294766 -3.844686 -6.185576 -9.772095 5.807288 -80.778029 -47.388271 74.637341 3.205626 -9.737645 -3.220276 -24.656476 -28.422285 1.755263 67.979790 86.890370 64.718261 2.460616 -28.402910 -1.091392 -1.680658 3.375071 -0.766387 -16.212000 -44.762273 3.458367 173.992401 73.090836 172.015226 0.901067 -24.330157 0.248779 -1.339018 -2.520420 -0.608419
-26.330283 55.937773 34.202805 -166.129921 -30.388192 -10.965215 -4.503128 14.199203 7.162145 -2.705358 8.381199 2.264343 -3.334837 10.503473 2.764213 -2.695728 8.433147 2.236247 1.669307 22.504575 -2.519347 2.378231 -1.511743 -3.120644 3.608197 -0.462629 -3.007931 2.497111 -17.738342 0.418225 74.221328 -45.942300 -53.468578 14.074713 3.378892 -8.029786 -13.886862 1.248293 -3.842524 -6.152253 -9.676080 6.026958 -81.537729 -47.798638 75.341463 3.357838 -9.775883 -3.249712 -24.652906 -28.418812 1.741330 68.119400 86.906358 64.866320 2.445766 -28.389878 -1.089095 -1.662030 3.353458 -0.757173 -16.224145 -44.757643 3.455563 173.963715 73.080777 171.980247 0.893969 -24.307498 0.249276 -1.339871 -2.546300 -0.608557
-26.328784 55.937613 34.199885 -166.125230 -30.392427 -10.975442 -4.510003 14.196417 7.175991 -2.709477 8.369181 2.268347 -3.340071 10.491438 2.767150 -2.706811 8.380768 2.258028 1.690804 22.611654 -2.546474 2.422735 -1.421232 -3.123107 3.616291 -0.402756 -3.055406 2.470411 -17.714195 0.315730 74.089775 -46.393929 -53.377525 13.986711 3.397113 -7.844560 -13.840638 1.225650 -3.879392 -6.140948 -9.580814 6.251218 -82.319390 -48.186050 76.086575 3.522841 -9.830930 -3.263910 -24.649142 -28.414047 1.746648 68.195992 86.914954 64.948991 2.439490 -28.379812 -1.087972 -1.657888 3.339456 -0.753421 -16.238323 -44.759171 3.470478 173.909258 73.064134 171.923382 0.895357 -24.279538 0.249321 -1.353415 -2.579172 -0.614783
-26.327937 55.936453 34.197620 -166.119541 -30.395420 -10.978127 -4.518956 14.189095 7.184281 -2.714872 8.364458 2.267714 -3.344957 10.475191 2.776956 -2.710961 8.372204 2.261525 1.722265 22.678941 -2.547671 2.457585 -1.340161 -3.132551 3.619596 -0.387754 -3.090602 2.447258 -17.685705 0.206293 74.033044 -46.789922 -53.346420 13.941278 3.443452 -7.687421 -13.798005 1.161318 -3.889994 -6.141128 -9.497335 6.479522 -83.128781 -48.569694 76.860820 3.693195 -9.887023 -3.272223 -24.643549 -28.413779 1.744475 68.285860 86.924536 65.044949 2.431207 -28.377084 -1.092511 -1.650156 3.331667 -0.743247 -16.246121 -44.761995 3.475781 173.881261 73.052359 171.890977 0.900541 -24.260751 0.250215 -1.364661 -2.601472 -0.619806
-26.327592 55.936011 34.193650 -166.097523 -30.411005 -10.986714 -4.545131 14.195277 7.186771 -2.711459 8.372243 2.261373 -3.347626 10.448665 2.798919 -2.713771 8.364076 2.265915 1.758612 22.750375 -2.543612 2.480266 -1.267994 -3.148295 3.613172 -0.399060 -3.135998 2.426752 -17.630802 0.101915 74.049447 -47.131801 -53.366702 13.928333 3.510067 -7.559048 -13.756612 1.100449 -3.901762 -6.147716 -9.429805 6.714432 -83.974260 -48.979684 77.667041 3.854337 -9.927788 -3.295062 -24.651917 -28.399089 1.729572 68.429046 86.935538 65.194343 2.424936 -28.373224 -1.099143 -1.636635 3.318442 -0.734967 -16.265529 -44.753579 3.483364 173.839292 73.036249 171.836530 0.888729 -24.231261 0.256567 -1.376028 -2.634963 -0.621922
-26.326782 55.934228 34.191668 -166.086184 -30.417040 -10.989023 -4.560307 14.187177 7.195426 -2.714142 8.364065 2.265643 -3.348493 10.440304 2.806126 -2.715418 8.356121 2.270911 1.784142 22.811644 -2.550044 2.509919 -1.193736 -3.161859 3.611072 -0.466851 -3.193109 2.396343 -17.522991 0.008372 74.125280 -47.423102 -53.424815 13.962712 3.613737 -7.465330 -13.715058 1.042620 -3.911144 -6.157781 -9.373848 6.951546 -84.862782 -49.431348 78.514768 4.000219 -9.940395 -3.349977 -24.660376 -28.394518 1.719878 68.535104 86.938128 65.303495 2.422199 -28.377775 -1.106261 -1.630015 3.318906 -0.732258 -16.271376 -44.750168 3.482236 173.833033 73.029678 171.827015 0.893652 -24.226863 0.259644 -1.383968 -2.642397 -0.626475
